<svg xmlns="http://www.w3.org/2000/svg" data-name="Ebene 1" width="596.9088770668463" height="586.7219613410044" style=""><rect id="backgroundrect" width="100%" height="100%" x="0" y="0" fill="none" stroke="none"/><g class="currentLayer" style=""><title>Layer 1</title><g id="F6vTuF" class="" fill="#ffffff" fill-opacity="1" stroke="#ffffff" stroke-opacity="1"><path d="M454.68238243103025,115.98951705932618 a8.08,8.08 0 0 0 1,2 q14,17.78 28.07,35.51 q6.68,8.44 13.36,16.9 c1,1.22 1.7600000000000002,2.22 3.68,2.18 c2.64,0 3.74,2.24 2.87,4.8900000000000015 a4.52,4.52 0 0 0 -0.18000000000000008,2.93 q13.06,28.92 26.29,57.76 a19.48,19.48 0 0 0 1.57,3.17 a4.66,4.66 0 0 0 2.05,1.7200000000000002 c2.91,1 3.56,4 1.4,6.25 a4.71,4.71 0 0 0 -1.3800000000000001,2.84 q-0.15000000000000008,38.63 -0.08000000000000004,77.26 a4.46,4.46 0 0 0 1.36,2.87 c2.22,2.12 1.75,5.08 -1.08,6.4 a3.8200000000000003,3.8200000000000003 0 0 0 -1.8900000000000001,1.8900000000000001 q-11.25,32.13 -22.3,64.3 a4.66,4.66 0 0 0 0.28,2.95 c1.05,2.72 -0.2,4.88 -3,5.4 a5,5 0 0 0 -2.77,1.6700000000000006 Q487.5623824310303,435.6495170593262 471.3423824310303,456.53951705932616 c-2.46,3.14 -4.94,6.27 -7.37,9.44 c-1.5,1.9500000000000002 -3.39,3.5700000000000003 -2.85,6.63 c0.35000000000000014,2 -2,3.12 -4.33,2.87 a5.74,5.74 0 0 0 -3.44,0.5900000000000003 q-31.91,20 -63.72,40.06 c-1.26,0.8 -2.13,1.5 -2.2800000000000002,3.29 c-0.26,2.89 -3.6900000000000004,3.75 -6.13,1.86 a3.68,3.68 0 0 0 -2.47,-0.7600000000000003 q-23.49,3.27 -46.94,6.68 c-7.55,1.08 -15.1,2.15 -22.62,3.38 a5.11,5.11 0 0 0 -2.89,1.8800000000000003 c-1.7600000000000002,2.26 -4.47,2.31 -6.15,0.05000000000000003 a4.05,4.05 0 0 0 -2.43,-1.53 c-9.38,-1.1400000000000001 -18.76,-2.17 -28.15,-3.21 L237.01238243103026,524.1495170593262 a45,45 0 0 0 -4.61,-0.3900000000000002 c-0.6900000000000006,0 -1.35,0.56 -2.05,0.78 c-1.29,0.4 -2.7800000000000002,1.3 -3.84,1 s-1.62,-2 -2.44,-3.06 c-0.6600000000000005,-0.8500000000000003 -1.2,-2 -2.08,-2.42 q-26.53,-14.25 -53.14,-28.37 c-5.29,-2.8200000000000003 -10.54,-5.7 -15.870000000000001,-8.44 a4.8100000000000005,4.8100000000000005 0 0 0 -3,-0.38000000000000017 c-3.55,0.7400000000000003 -5.24,-0.6900000000000006 -5,-4.24 a4.17,4.17 0 0 0 -0.8700000000000003,-2.6100000000000003 q-21.5,-27.32 -43.1,-54.55 a6.43,6.43 0 0 0 -3,-1.81 A3.63,3.63 0 0 1 95.34238243103027,414.8095170593262 a4.93,4.93 0 0 0 0.08000000000000004,-3 q-12.6,-29.58 -25.34,-59.09 c-0.5700000000000003,-1.34 -1,-2.41 -2.81,-2.84 c-2.6,-0.6200000000000003 -3,-3.8600000000000003 -1.21,-6 a5.78,5.78 0 0 0 1.46,-3.38 q0.23,-37.83 0.25,-75.65 c0,-1.7200000000000002 0.22000000000000008,-3.39 -1.83,-4.6400000000000015 c-1.8,-1.11 -1,-4.32 0.77,-5.63 a6.6400000000000015,6.6400000000000015 0 0 0 2.43,-2.85 C75.34238243103027,233.34951705932616 81.34238243103027,214.88951705932618 87.39238243103027,196.44951705932618 c0.77,-2.33 1.57,-4.6400000000000015 2.35,-7 c0.6000000000000003,-1.78 1.19,-3.41 0.24000000000000007,-5.43 s0.55,-3.79 2.81,-4.39 a5.5600000000000005,5.5600000000000005 0 0 0 2.84,-1.61 q19,-23.76 37.83,-47.63 c1.18,-1.49 2.38,-3 3.56,-4.45 s2.21,-2.54 1.62,-4.79 s2,-4.05 4.47,-3.67 a5.88,5.88 0 0 0 3.67,-0.56 q32.12,-20.1 64.14,-40.35 A4.65,4.65 0 0 0 213.50238243103027,73.14951705932617 c0.48000000000000015,-2.89 3.63,-3.59 6,-1.7200000000000002 a3.67,3.67 0 0 0 2.49,0.8 q31.6,-4.95 63.19,-10.08 a3.66,3.66 0 0 0 2.1,-1.37 c2.06,-2.77 4.22,-2.87 6.36,-0.29000000000000015 a3.52,3.52 0 0 0 2.15,1.17 c14.4,1.34 28.8,2.59 43.2,3.89 c9.14,0.8300000000000003 18.27,1.7400000000000002 27.42,2.48 a5.22,5.22 0 0 0 3.23,-1.12 c2.36,-1.82 5.05,-1 6,1.8800000000000003 a4.17,4.17 0 0 0 1.6500000000000006,2.17 q22.8,13.08 45.69,26.05 c7.9,4.49 15.8,9 23.75,13.39 a4.87,4.87 0 0 0 3.18,0.47000000000000014 C453.10238243103026,110.19951705932617 454.97238243103027,111.70951705932617 454.68238243103025,115.98951705932618 zM511.4423824310303,296.6295170593262 l-1.13,1.1 c0.27,-2.14 0.44000000000000017,-4.3100000000000005 0.8300000000000003,-6.43 c1.6700000000000006,-8.92 3.43,-17.82 5.11,-26.73 c0.6300000000000003,-3.41 -0.28,-4.18 -3.46,-3 q-19.59,7.4 -39.16,14.83 c-3,1.13 -4.76,5 -3.45,7.84 q12.63,27.45 25.31,54.87 c1.42,3.07 2.8200000000000003,6.15 4.57,10 c0.3200000000000002,-1.27 0.44000000000000017,-1.6600000000000001 0.52,-2.07 q3.7600000000000002,-19.78 7.57,-39.58 a8,8 0 0 1 1.13,-2.14 a8.36,8.36 0 0 1 0.42000000000000015,2.56 c-0.51,3.22 -1.18,6.41 -1.8,9.620000000000001 c-1.8900000000000001,9.8 -3.8,19.59 -5.63,29.4 a3,3 0 0 0 0.48000000000000015,2.16 c0.24000000000000007,0.29000000000000015 1.35,0.15000000000000008 1.9,-0.13 c7.51,-3.8600000000000003 15,-7.78 22.47,-11.69 c1.5,-0.79 3.85,-5.71 3.55,-7.35 c-2.08,-11.24 -4.13,-22.49 -6.23,-33.72 c-2,-10.56 -4,-21.11 -6,-31.66 c-1.52,5.47 -2.58,11 -3.6900000000000004,16.45 C513.6523824310302,286.1495170593262 512.5423824310303,291.40951705932616 511.4423824310303,296.6295170593262 zM334.0623824310303,374.2695170593262 c1.21,-2 2.09,-3.5 0.5900000000000003,-5.92 q-21.22,-34.26 -42.08,-68.77 c-1.5,-2.48 -3.44,-1.29 -5.16,-1.6800000000000006 c-0.53,-0.12000000000000002 -1.6400000000000001,1.13 -2.08,2 q-12.27,23.22 -24.43,46.49 q-6.84,13 -13.67,26.05 c-1.4300000000000002,2.72 -0.13,4.73 2.92,4.6400000000000015 q30.29,-1 60.56,-1.92 C318.53238243103027,374.8795170593262 326.3423824310303,374.54951705932615 334.0623824310303,374.2695170593262 zm-41.07,-77.07 l12.44,20.33 q15.48,25.35 31,50.7 c1.55,2.52 4.61,2.35 6.05,-0.27 q19.44,-35.44 38.91,-70.87 c0.8900000000000003,-1.62 1.29,-3 -0.28,-4.2 a5.14,5.14 0 0 0 -2.95,-1.09 c-21.83,0.1 -43.66,0.29000000000000015 -65.49,0.44000000000000017 c-5.79,0 -11.57,0 -16.82,0 C294.66238243103027,294.27951705932617 293.86238243103026,295.66951705932615 292.99238243103025,297.1995170593262 zm86.62,-6.54 c2.5300000000000002,-2.75 2.24,-4.5600000000000005 0.8900000000000003,-6.76 Q359.2523824310303,249.14951705932617 338.16238243103027,214.32951705932618 a3,3 0 0 0 -5.11,0.38000000000000017 q-4.79,8.4 -9.55,16.82 q-11.67,20.64 -23.3,41.3 c-2.6500000000000004,4.72 -5.27,9.46 -7.84,14.09 c1.8900000000000001,1.87 2.75,4.3 6,4.07 c6.05,-0.43000000000000016 12.14,-0.3200000000000002 18.21,-0.3200000000000002 C337.8123824310303,290.6395170593262 359.0123824310303,290.65951705932616 379.61238243103026,290.65951705932616 zM196.34238243103027,292.1495170593262 c2.33,0.3200000000000002 1.8800000000000003,3.3 4.83,3.13 q38.84,-2.15 77.7,-3.8600000000000003 c3.09,-0.14 5.39,-0.6000000000000003 6.17,-4.21 c-5.09,-8.59 -10.33,-17.41 -15.55,-26.23 c-8.55,-14.47 -17.13,-28.93 -25.6,-43.45 c-0.8900000000000003,-1.52 -1.9300000000000002,-1.6900000000000006 -3.49,-1.79 s-2.21,0.7100000000000003 -2.85,1.8800000000000003 q-11.71,21.24 -23.46,42.47 zm61.35,2 v-0.1 c-2,0.15000000000000008 -4,0.3400000000000003 -6,0.43000000000000016 q-25.08,1.17 -50.16,2.31 c-2.85,0.14 -3.9,2.06 -2.49,4.57 c0.7100000000000003,1.27 1.5,2.49 2.24,3.74 q19.35,32.88 38.68,65.78 c0.8900000000000003,1.5 1.83,2.94 3.72,2.21 a5.52,5.52 0 0 0 2.66,-2.46 c5.8100000000000005,-10.89 11.52,-21.84 17.24,-32.77 q10.37,-19.78 20.7,-39.59 a3.6500000000000004,3.6500000000000004 0 0 0 -3.43,-5.34 Q269.24238243103025,293.4595170593262 257.6523824310303,294.08951705932617 zm74.47,-81.18 c-1.1400000000000001,-3.64 -3.59,-3.87 -6.4,-3.49 a32.45,32.45 0 0 1 -3.8200000000000003,0.15000000000000008 l-72.85,1.4100000000000001 c-4.58,0.09000000000000007 -5.82,2.45 -3.46,6.43 q19.84,33.5 39.73,67 a4.06,4.06 0 0 0 2.4,1.9300000000000002 a3.85,3.85 0 0 0 4.42,-2.12 c2.83,-5.47 5.91,-10.82 8.94,-16.2 C311.4523824310303,249.56951705932616 321.8423824310303,231.14951705932617 332.12238243103025,212.90951705932616 zm12.68,160.88 c8.69,-0.45 17.58,-0.8600000000000003 26.47,-1.3800000000000001 c17.34,-1 34.67,-2.09 52,-3.11 c3.79,-0.22000000000000008 4.51,-1.3800000000000001 2.6900000000000004,-4.6400000000000015 Q407.16238243103027,331.0195170593262 388.3423824310303,297.3995170593262 a3.6,3.6 0 0 0 -2.56,-1.6700000000000006 a3.48,3.48 0 0 0 -2.6,1.59 c-12.9,23.37 -25.68,46.8 -38.61,70.15 C343.2523824310303,369.7595170593262 342.49238243103025,371.60951705932615 344.80238243103025,373.78951705932616 zm-105.19,-0.1600000000000001 c-0.23,-0.44000000000000017 -0.46,-0.93 -0.7400000000000003,-1.4 l-22.94,-39 c-6,-10.18 -12,-20.37 -18,-30.51 a3.42,3.42 0 0 0 -2.12,-1.51 a20.8,20.8 0 0 0 -4.17,0.1600000000000001 c-0.6600000000000005,1.47 -1.3800000000000001,3.13 -2.17,4.76 q-14.9,30.78 -29.83,61.53 c-1.15,2.37 -2.17,4.57 0,7 a3.36,3.36 0 0 0 0.5900000000000003,0.1 c24.47,0.7400000000000003 48.93,1.45 73.39,2.2800000000000002 C236.40238243103028,377.1495170593262 238.69238243103027,377.0095170593262 239.61238243103028,373.6295170593262 zm4.44,-167.18 c0.7600000000000003,2.7600000000000002 2.46,3.18 5,3.08 c10.64,-0.41000000000000014 21.29,-0.5800000000000003 31.93,-0.8 c15.65,-0.3300000000000002 31.3,-0.5900000000000003 46.95,-1 c3.07,-0.07 4.4,-2.74 2.7800000000000002,-5.28 q-7.69,-12.08 -15.42,-24.12 c-8,-12.55 -16.09,-25.09 -24,-37.7 c-1,-1.56 -2.26,-2.26 -3.7,-1.7200000000000002 a6.43,6.43 0 0 0 -2.68,2.6900000000000004 C278.04238243103026,152.37951705932616 271.3423824310303,163.14951705932617 264.53238243103027,173.93951705932616 C257.66238243103027,184.85951705932618 250.78238243103027,195.76951705932618 244.05238243103028,206.44951705932618 zM461.6423824310303,279.91951705932615 c-6.16,0.9400000000000003 -12.17,1.82 -18.18,2.7600000000000002 l-50.81,8 c-2.38,0.37000000000000016 -4.12,3.71 -2.95,5.84 c1.62,2.94 3.3,5.85 4.94,8.78 q16.56,29.6 33.15,59.18 c0.38000000000000017,0.6700000000000006 1.33,1.58 1.84,1.48 s1.33,-1.09 1.6300000000000003,-1.84 q10.63,-26.52 21.2,-53.09 c3.63,-9.1 7.29,-18.18 10.91,-27.28 C464.0923824310303,281.91951705932615 463.0923824310303,279.97951705932616 461.6423824310303,279.91951705932615 zm-34.66,92.35 c-1.29,-0.52 -2.22,-1.25 -3.12,-1.21 c-7.27,0.29000000000000015 -14.53,0.7200000000000003 -21.79,1.12 q-27.51,1.56 -55,3.12 c-3.38,0.19000000000000009 -5.13,3 -3.6900000000000004,6 q14.13,30 28.24,60.09 c1.31,2.79 2.83,2.93 4.66,0.43000000000000016 q14.93,-20.46 29.83,-40.9 c6.21,-8.49 12.47,-16.94 18.69,-25.41 C425.42238243103026,374.65951705932616 425.98238243103026,373.7595170593262 426.98238243103026,372.2695170593262 zM293.2123824310303,136.14951705932617 c-0.2,0.1600000000000001 -1.13,0.5 -1.27,1 a3.34,3.34 0 0 0 0.46,2.35 c5.93,9.36 11.93,18.67 17.92,28 q11,17.07 21.94,34.14 a3.92,3.92 0 0 0 1.8800000000000003,1.6700000000000006 c2.81,0.77 5.2,0.21000000000000008 6.76,-2.6100000000000003 a23.8,23.8 0 0 1 2.47,-3.25 q18.71,-23.09 37.37,-46.21 a3.68,3.68 0 0 0 0.7600000000000003,-3 a3.58,3.58 0 0 0 -2.55,-1.75 c-6.38,-0.8700000000000003 -12.8,-1.53 -19.2,-2.31 c-11.17,-1.36 -22.33,-2.7800000000000002 -33.5,-4.14 C315.43238243103025,138.77951705932617 304.61238243103026,137.50951705932619 293.2123824310303,136.14951705932617 zm-50.53,69.4 c5.93,-9.43 12,-19.13 18.11,-28.82 q11.7,-18.57 23.37,-37.15 a8.16,8.16 0 0 0 0.5700000000000003,-2.63 a8.55,8.55 0 0 0 -2.44,-0.41000000000000014 c-4,0.5 -8.07,1.06 -12.09,1.71 c-10,1.59 -19.88,3.27 -29.83,4.86 c-13.91,2.21 -27.82,4.34 -41.72,6.5600000000000005 c-3.45,0.55 -4.08,2.36 -1.85,5.13 c12.83,15.93 25.73,31.81 38.45,47.83 C237.25238243103027,205.14951705932617 239.13238243103027,206.79951705932618 242.68238243103028,205.54951705932618 zM181.34238243103027,377.1495170593262 v-0.78 c-6.46,0 -12.91,0 -19.36,0 a21.5,21.5 0 0 0 -3.52,0.6300000000000003 a17.77,17.77 0 0 0 1.7200000000000002,3.4 q12.94,16.17 26,32.23 c8.92,11 17.9,22 26.74,33 a2.93,2.93 0 0 0 3.93,1 c0.78,-0.38000000000000017 1.23,-1.6900000000000006 1.58,-2.67 Q229.34238243103027,414.27951705932617 240.14238243103028,384.48951705932615 c0.5900000000000003,-1.6300000000000003 -2.18,-5.7 -4,-5.79 c-5.62,-0.26 -11.25,-0.54 -16.88,-0.6900000000000006 C206.63238243103027,377.6895170593262 194.00238243103027,377.4395170593262 181.34238243103027,377.1495170593262 zm-56.14,-88.66 c-3,-0.18000000000000008 -3.6900000000000004,1.31 -2.21,5 q15,37.49 30.15,75 c0.3300000000000002,0.81 1.33,1.85 2,1.86 s1.75,-1 2.14,-1.75 q15.870000000000001,-32.7 31.63,-65.45 c2.2800000000000002,-4.71 1.37,-6.34 -3.75,-7 q-14.61,-1.8 -29.2,-3.66 Q140.62238243103027,290.5195170593262 125.23238243103027,288.4995170593262 zm259.9,-1.9 c1.07,-1.27 2,-2 2.41,-2.92 c3.05,-7.57 6,-15.19 9,-22.79 q7.08,-18 14.18,-35.94 a4.27,4.27 0 0 0 -3.19,-5.93 c-6.38,-0.8900000000000003 -12.75,-1.85 -19.14,-2.7 q-23.07,-3.06 -46.16,-6 c-0.8800000000000003,-0.11000000000000004 -2.29,0.15000000000000008 -2.66,0.7400000000000003 a3.3,3.3 0 0 0 0.3300000000000002,2.7800000000000002 q11.79,19.6 23.71,39.12 q9.54,15.72 19.11,31.43 A14.51,14.51 0 0 0 385.1323824310303,286.59951705932616 zm-191,5.5 c0.93,-1.4 1.51,-2.14 2,-2.95 q19.94,-36 39.92,-72 c1.11,-2 1.26,-3.43 -0.48000000000000015,-5 c-1.36,0.19000000000000009 -2.8,0.35000000000000014 -4.22,0.5900000000000003 l-61.24,10.18 a4.5,4.5 0 0 0 -3.12,5.6400000000000015 q12.58,29.68 25.18,59.37 C192.57238243103026,289.0795170593262 193.16238243103027,290.1495170593262 194.08238243103028,292.1495170593262 zm95.54,85.38 c-12.11,0.37000000000000016 -25.93,0.77 -39.75,1.26 a3.27,3.27 0 0 0 -2.31,1.2 a2.5300000000000002,2.5300000000000002 0 0 0 0.47000000000000014,2.2800000000000002 q20.73,24.29 41.56,48.46 c3.17,3.6900000000000004 5.76,3.63 8.58,-0.24000000000000007 q18.15,-24.92 36.25,-49.86 c0.6900000000000006,-1 2.08,-2 0.6300000000000003,-3.23 a5.08,5.08 0 0 0 -3.07,-1.32 C318.43238243103025,376.41951705932615 304.8923824310303,376.92951705932614 289.62238243103025,377.47951705932616 zm145.16,-9.84 l1.3800000000000001,-0.3200000000000002 l58.32,-14.66 c3.19,-0.8 4.12,-2.73 2.75,-5.7 Q482.79238243103026,315.66951705932615 468.3423824310303,284.40951705932616 c-0.3200000000000002,-0.7000000000000003 -1.1400000000000001,-1.1600000000000001 -1.73,-1.7400000000000002 a7.78,7.78 0 0 0 -1.61,1.87 c-2.8,6.8 -5.52,13.63 -8.25,20.45 q-12,29.82 -23.92,59.65 C431.9523824310303,366.7095170593262 432.5223824310303,367.6295170593262 434.78238243103027,367.6395170593262 zm-56.8,78.08 l0.8400000000000003,-0.1600000000000001 l67.91,-10.06 c3.79,-0.56 4.95,-2.51 3.7,-6 q-9.42,-26.26 -18.76,-52.56 c-0.53,-1.48 -1.25,-2.54 -2.8200000000000003,-2.24 a5.07,5.07 0 0 0 -2.87,1.6400000000000001 c-4.58,6.1 -9,12.28 -13.51,18.45 l-19.68,27.09 c-5.17,7.13 -10.36,14.25 -15.5,21.41 a2.84,2.84 0 0 0 -0.36000000000000015,1.8900000000000001 C376.97238243103027,445.4395170593262 377.7623824310303,445.60951705932615 377.98238243103026,445.71951705932617 zm15.43,-156.81 c1.17,-0.21000000000000008 3.49,-0.6400000000000003 5.83,-1 c20.28,-3.14 40.56,-6.24 60.83,-9.43 a3.29,3.29 0 0 0 2.26,-1.6900000000000006 a3.39,3.39 0 0 0 -0.7600000000000003,-2.71 c-3.13,-3.66 -6.4,-7.2 -9.61,-10.8 Q434.6523824310303,243.80951705932617 417.3423824310303,224.33951705932617 c-2,-2.26 -4.38,-1.6800000000000006 -5.37,1.24 c-0.41000000000000014,1.2 -0.8500000000000003,2.4 -1.32,3.58 q-10.76,27.51 -21.52,55 C388.1323824310303,286.77951705932617 389.7123824310303,289.21951705932617 393.41238243103027,288.90951705932616 zM370.85238243103026,443.6995170593262 q-14.56,-31.1 -29.12,-62.16 c-1.18,-2.51 -4,-2.75 -5.66,-0.41000000000000014 q-18.47,25.33 -36.92,50.7 c-2.4,3.31 -1.73,5.07 2.3200000000000003,5.59 c10.73,1.3800000000000001 21.46,2.67 32.2,4 c10.91,1.35 21.83,2.62 32.73,4.07 C368.3423824310303,445.73951705932615 369.80238243103025,445.78951705932616 370.85238243103026,443.6995170593262 zm13.81,-293.67 a22.86,22.86 0 0 0 -2.6,2.27 q-20.85,25.74 -41.6,51.58 a3.59,3.59 0 0 0 -0.37000000000000016,3 a3.31,3.31 0 0 0 2.2800000000000002,1.6700000000000006 c7.73,1.13 15.48,2.1 23.22,3.15 c13.95,1.8900000000000001 27.89,3.81 41.83,5.68 c3.25,0.44000000000000017 4.34,-1.11 3.14,-4.19 q-5.3100000000000005,-13.56 -10.55,-27.15 C395.80238243103025,175.14951705932617 391.6523824310303,164.14951705932617 387.3423824310303,153.27951705932617 C386.92238243103026,152.14951705932617 385.7723824310303,151.31951705932616 384.66238243103027,150.02951705932617 zM168.43238243103028,221.36951705932617 c10.4,-1.6400000000000001 20.45,-3.17 30.48,-4.8100000000000005 c11.39,-1.85 22.75,-3.83 34.13,-5.69 c1.54,-0.25 3,-0.46 3.1,-2.31 a5.42,5.42 0 0 0 -0.81,-3.27 c-5.38,-6.86 -10.88,-13.620000000000001 -16.35,-20.41 l-24,-29.7 c-1.6300000000000003,-2 -4.34,-1.6400000000000001 -5.21,0.6900000000000006 Q184.08238243103028,171.01951705932618 178.34238243103027,186.14951705932617 q-5.88,15.67 -11.72,31.36 C165.90238243103028,219.54951705932618 166.94238243103027,221.38951705932618 168.43238243103028,221.36951705932617 zm53.29,228.34 c0.54,-0.06000000000000003 1.09,-0.09000000000000007 1.62,-0.19000000000000009 q32,-5.8900000000000015 63.91,-11.81 c3.55,-0.6500000000000004 4.2,-2.39 1.86,-5.1 q-20.89,-24.29 -41.84,-48.54 c-2,-2.34 -4.54,-1.85 -5.6,1.07 q-6,16.35 -12,32.7 q-5,13.81 -10,27.64 C218.90238243103028,447.73951705932615 219.86238243103028,449.66951705932615 221.72238243103027,449.7095170593262 zm159,-304.6 c0.18000000000000008,-0.1 1,-0.29000000000000015 1.11,-0.6700000000000006 a2.58,2.58 0 0 0 -0.42000000000000015,-1.9 c-1.83,-2.49 -3.74,-4.92 -5.65,-7.35 q-17.24,-22 -34.5,-44 c-1.92,-2.43 -4.34,-2.48 -6.55,-0.3300000000000002 q-20.56,19.95 -41.11,39.91 a3.16,3.16 0 0 0 -1,2.45 c0.17,0.6400000000000003 1.37,1.3 2.19,1.4100000000000001 c6.57,0.9 13.15,1.6900000000000006 19.73,2.49 q19.36,2.33 38.71,4.62 C362.1923824310303,142.80951705932617 371.2023824310303,143.93951705932616 380.68238243103025,145.14951705932617 zM191.78238243103027,291.4995170593262 a1.58,1.58 0 0 0 -0.06000000000000003,-0.41000000000000014 Q178.57238243103026,260.1495170593262 165.34238243103027,229.19951705932618 c-0.3200000000000002,-0.7500000000000003 -1.29,-1.7600000000000002 -1.9,-1.73 a4,4 0 0 0 -2.73,1.46 c-7,10 -13.93,20 -20.87,30 q-7.83,11.32 -15.64,22.67 c-2,2.95 -1.26,4.91 2.17,5.38 c5.76,0.8 11.54,1.4100000000000001 17.31,2.16 c13.6,1.7600000000000002 27.22,3.44 40.79,5.42 C187.77238243103028,295.03951705932616 190.23238243103026,294.78951705932616 191.78238243103027,291.4995170593262 zm15.79,158.29 v0 a9.39,9.39 0 0 0 1.8900000000000001,0.19000000000000009 c1.07,-0.11000000000000004 2.13,-0.36000000000000015 3.19,-0.55 a12.75,12.75 0 0 0 -1.29,-3 q-8.42,-10.72 -17,-21.33 q-18.19,-22.45 -36.49,-44.83 a9.19,9.19 0 0 0 -1.8,-1.37 c-0.46,0.7000000000000003 -1.18,1.34 -1.33,2.1 c-0.9500000000000003,4.72 -1.7400000000000002,9.46 -2.64,14.19 q-4.06,21.52 -8.18,43 c-0.5900000000000003,3.15 0.8500000000000003,5.21 4,5.53 Q177.74238243103028,446.78951705932616 207.57238243103026,449.78951705932616 zM197.05238243103028,148.14951705932617 c8.16,-1.26 15.88,-2.44 23.59,-3.6500000000000004 q30.63,-4.8 61.27,-9.68 a3.17,3.17 0 0 0 2.21,-1.42 a3,3 0 0 0 -0.7500000000000003,-2.46 q-18.31,-18.9 -36.73,-37.7 a4.21,4.21 0 0 0 -5.63,0.26 q-10.89,12.57 -21.76,25.14 Q207.75238243103027,131.94951705932618 196.34238243103027,145.29951705932618 c-0.48000000000000015,0.55 -1,1.47 -0.8400000000000003,2 S196.7023824310303,147.97951705932618 197.05238243103028,148.14951705932617 zm238,221.24 c-0.6500000000000004,1.52 -1.24,2.64 -1.6,3.8200000000000003 c-0.30000000000000016,1 -0.7600000000000003,2.24 -0.44000000000000017,3.12 q9.48,26.52 19.17,52.95 a11.52,11.52 0 0 0 1.55,2.33 a9.47,9.47 0 0 0 2,-1.8800000000000003 q20.52,-36.27 41,-72.61 c0.5,-0.8900000000000003 0.8700000000000003,-1.85 1.29,-2.7800000000000002 l-0.51,-0.6900000000000006 zm-340.1,-11.5 a20.85,20.85 0 0 0 1.8,2.4 a5.5600000000000005,5.5600000000000005 0 0 0 2.29,1.77 c5.46,1.33 11,2.5 16.45,3.72 l34.82,7.68 c2.22,-1.6300000000000003 1.85,-3.35 1,-5.38 c-4.91,-12 -9.71,-24.06 -14.56,-36.1 q-7.87,-19.57 -15.8,-39.13 a19.07,19.07 0 0 0 -1.7000000000000002,-2.66 C110.93238243103028,313.2695170593262 102.90238243103028,335.6195170593262 94.90238243103028,357.8795170593262 zm372.28,-83.44 c1.6500000000000006,0.28 3.5300000000000002,1.23 4.88,0.7300000000000003 c13.46,-4.95 26.83,-10.13 40.22,-15.27 c3.25,-1.25 3.66,-2.79 1.49,-5.6 q-19.08,-24.74 -38.18,-49.44 q-4.78,-6.19 -9.59,-12.37 l-0.6200000000000003,0.22000000000000008 C465.98238243103026,219.76951705932618 466.5723824310303,246.82951705932618 467.18238243103025,274.4395170593262 zM220.82238243103026,451.66951705932615 l-0.08000000000000004,0.79 a12,12 0 0 0 1.42,1 q36.19,19.26 72.42,38.46 c0.8600000000000003,0.46 2.48,0.9 2.88,0.49000000000000016 a4.3,4.3 0 0 0 0.7200000000000003,-3.07 c-1.35,-15.12 -2.7800000000000002,-30.24 -4.18,-45.35 c-0.24000000000000007,-2.52 -3.68,-5.24 -6.14,-4.79 l-59.71,11 C225.7023824310303,450.6495170593262 223.26238243103026,451.1495170593262 220.82238243103026,451.66951705932615 zm243.87,-177 l0.8200000000000003,-0.38000000000000017 c0,-0.8500000000000003 0,-1.7000000000000002 0,-2.55 c-0.13,-5.54 -0.29000000000000015,-11.08 -0.4,-16.62 q-0.6300000000000003,-30.28 -1.24,-60.59 c-0.06000000000000003,-2.55 -1.29,-3.33 -3.38,-2.1 q-20.32,11.92 -40.64,23.88 a4.78,4.78 0 0 0 -1,7.2 q21,23.67 42,47.31 C462.05238243103025,272.1495170593262 463.41238243103027,273.3795170593262 464.6923824310303,274.65951705932616 zM303.0723824310303,494.3695170593262 l0.18000000000000008,0.6200000000000003 c7.71,0.53 15.42,1.07 23.13,1.57 q27,1.7400000000000002 53.92,3.47 c2.8,0.18000000000000008 4,-1.09 3.35,-3.8 q-4.69,-20.85 -9.37,-41.7 c-0.7400000000000003,-3.31 -3.7,-4.49 -6.62,-2.6 c-9.83,6.36 -19.68,12.67 -29.47,19.09 c-8.59,5.63 -17.09,11.39 -25.64,17.08 C309.4023824310303,490.1995170593262 306.23238243103026,492.27951705932617 303.0723824310303,494.3695170593262 zm-7.38,-50.07 c0.7500000000000003,8.33 1.47,16.65 2.25,25 c0.6500000000000004,7.05 1.35,14.11 2.06,21.16 c0.23,2.31 1.44,2.88 3.46,1.6900000000000006 c0.6300000000000003,-0.37000000000000016 1.21,-0.8 1.82,-1.2 l41.66,-27.33 c6.83,-4.49 13.67,-9 20.46,-13.52 c0.6400000000000003,-0.42000000000000015 0.9400000000000003,-1.34 1.4,-2 a8,8 0 0 0 -2.07,-0.9 c-4.05,-0.53 -8.12,-0.92 -12.17,-1.42 L301.3423824310303,439.1495170593262 C297.54238243103026,438.6495170593262 295.5123824310303,440.54951705932615 295.6923824310303,444.29951705932615 zM461.48238243103026,189.34951705932616 a16.39,16.39 0 0 0 -2.48,-2.18 q-11.82,-6.5 -23.69,-12.86 q-22.16,-12 -44.34,-23.89 a9.38,9.38 0 0 0 -2.22,-0.56 a5.77,5.77 0 0 0 -0.06000000000000003,2.22 q5.36,14.26 10.85,28.47 c4.13,10.65 8.37,21.26 12.49,31.9 a5,5 0 0 0 7,2.67 q20.29,-12 40.52,-24.08 A15,15 0 0 0 461.48238243103026,189.34951705932616 zM295.5623824310303,495.22951705932616 l0.1600000000000001,-0.6000000000000003 c-0.7200000000000003,-0.43000000000000016 -1.4300000000000002,-0.8900000000000003 -2.17,-1.29 l-72,-38.16 c-2.36,-1.25 -4.18,-0.31000000000000016 -4.18,2.3 q0,21.42 0,42.85 a4,4 0 0 0 4.17,3.8 c6.5,-0.7300000000000003 13,-1.54 19.49,-2.3200000000000003 l39.21,-4.73 zm153.5,-58.31 c-0.4,0 -1.57,0.08000000000000004 -2.72,0.25 q-33,4.88 -66,9.78 c-2.56,0.38000000000000017 -5.22,4.05 -4.67,6.53 q4.8,21.38 9.64,42.73 c0.17,0.7100000000000003 0.7400000000000003,1.84 1.15,1.86 a3.49,3.49 0 0 0 2.23,-1.06 c15.09,-14.6 30.22,-29.16 45.18,-43.9 C439.23238243103026,447.83951705932617 444.18238243103025,442.1495170593262 449.0623824310303,436.91951705932615 zM153.40238243103028,379.53951705932616 c-1,-1.36 -1.7400000000000002,-2.48 -2.62,-3.46 a4.05,4.05 0 0 0 -1.9100000000000001,-1.23 q-25.07,-5.58 -50.18,-11 a9.54,9.54 0 0 0 -2.6900000000000004,0.19000000000000009 a10.76,10.76 0 0 0 0.77,2.64 q7.39,12.56 14.91,25 q14.19,23.72 28.42,47.42 a25.8,25.8 0 0 0 1.6400000000000001,2.1 C145.74238243103028,420.04951705932615 149.61238243103028,399.59951705932616 153.40238243103028,379.53951705932616 zM335.28238243103027,87.35951705932617 c-4.6400000000000015,0 -9.32,-0.12000000000000002 -14,0 q-35.85,1 -71.68,2.24 a7.73,7.73 0 0 0 -2.12,0.6900000000000006 a7.52,7.52 0 0 0 1,2.21 q18,18.63 36,37.17 c1.3800000000000001,1.4300000000000002 6.35,1.3 7.86,-0.1600000000000001 q17,-16.48 34,-33 C329.47238243103027,93.57951705932618 332.3423824310303,90.44951705932617 335.28238243103027,87.35951705932617 zm127,99.54 c-0.49000000000000016,-1.32 -0.6500000000000004,-1.9 -0.9,-2.43 q-8.29,-17.46 -16.6,-34.91 c-4.71,-9.93 -9.38,-19.87 -14.13,-29.77 c-1.3800000000000001,-2.87 -3.2,-3.25 -5.78,-1.33 q-16.86,12.5 -33.68,25 c-2.16,1.6 -2,3.94 0.3400000000000003,5.26 c5.49,3 11,6 16.51,9 q22.17,12 44.34,23.94 C455.47238243103027,183.33951705932617 458.5723824310303,184.92951705932617 462.3423824310303,186.89951705932617 zM341.99238243103025,88.23951705932618 l-0.44000000000000017,0.6600000000000005 q3.77,4.78 7.54,9.58 q16.67,21.26 33.34,42.5 c1.42,1.82 6,2.42 7.86,1 q17,-12.57 34,-25.19 c0.5800000000000003,-0.43000000000000016 1.37,-1.4300000000000002 1.21,-1.8 a3.25,3.25 0 0 0 -1.8900000000000001,-1.51 c-6.22,-2 -12.47,-3.88 -18.71,-5.83 l-48.6,-15.15 C351.5123824310303,91.05951705932617 346.7523824310303,89.66951705932617 341.99238243103025,88.23951705932618 zM215.34238243103027,503.40951705932616 a30.12,30.12 0 0 0 0.42000000000000015,-3.19 q0,-21.3 0,-42.6 c0,-1.8800000000000003 -3.64,-5.66 -5.5600000000000005,-5.85 c-7.69,-0.77 -15.38,-1.52 -23.07,-2.31 q-20.06,-2.07 -40.12,-4.15 a11,11 0 0 0 -1.86,0.18000000000000008 C168.62238243103027,464.8695170593262 191.69238243103027,483.8995170593262 215.34238243103027,503.40951705932616 zM118.70238243103027,202.14951705932617 l-0.54,-0.24000000000000007 c-2.5700000000000003,4.14 -5.12,8.28 -7.69,12.4 q-16.25,26 -32.48,52 c-1.5,2.39 -0.79,4.73 1.6500000000000006,5.6 q16.8,6 33.6,11.93 c2.9,1 5.4,-0.79 5.41,-3.91 q0,-20.9 0,-41.77 Q118.72238243103027,220.14951705932617 118.70238243103027,202.14951705932617 zm1.7600000000000002,80.17 l0.6900000000000006,0.35000000000000014 a15.71,15.71 0 0 0 1.5,-1.6700000000000006 q18.16,-26.22 36.3,-52.46 a5.71,5.71 0 0 0 -2,-8.32 q-16.5,-9.3 -33,-18.54 c-2.67,-1.49 -3.58,-0.93 -3.58,2.12 q0,38.09 -0.06000000000000003,76.16 C120.34238243103027,280.73951705932615 120.41238243103027,281.5195170593262 120.46238243103028,282.3095170593262 zm68.56,-129 l-0.5800000000000003,-0.53 l-8.5,5.76 L124.56238243103027,195.84951705932616 c-2.33,1.57 -2.23,3 0.25,4.42 q16.75,9.4 33.52,18.79 a4.91,4.91 0 0 0 6.91,-2.41 Q173.34238243103027,195.14951705932617 181.44238243103027,173.59951705932616 C183.98238243103026,166.82951705932618 186.49238243103028,160.05951705932617 189.02238243103028,153.28951705932616 zm-67,41.54 l0.37000000000000016,0.35000000000000014 c0.7600000000000003,-0.47000000000000014 1.53,-0.92 2.27,-1.4100000000000001 l41.19,-27.7 q10.07,-6.76 20.12,-13.57 c2,-1.36 2.34,-3.79 0.7600000000000003,-5.08 q-13.76,-11.19 -27.55,-22.34 a3.31,3.31 0 0 0 -5.4,1.33 q-5.78,12.48 -11.55,25 Q132.10238243103026,173.14951705932617 121.99238243103028,194.82951705932618 zM240.34238243103027,91.53951705932617 l-0.29000000000000015,-0.46 c-2,0.78 -4,1.62 -6,2.34 q-36.09,13 -72.16,26.1 a4.19,4.19 0 0 0 -2.44,2.31 c-0.19000000000000009,0.7000000000000003 0.8,2 1.58,2.64 c8.43,6.92 16.93,13.76 25.41,20.62 c2.17,1.7600000000000002 6.72,1.29 8.58,-0.8800000000000003 q13,-15.12 25.94,-30.23 Q230.65238243103028,102.74951705932617 240.34238243103027,91.53951705932617 zM93.80238243103027,355.3895170593262 c0.46,-1 0.6600000000000005,-1.4300000000000002 0.81,-1.83 q6.95,-19.19 13.89,-38.38 c2.67,-7.32 5.38,-14.63 8.06,-21.95 c0.92,-2.51 -0.81,-6.69 -3.15,-7.53 Q96.34238243103027,279.60951705932615 79.34238243103027,273.5795170593262 a11.93,11.93 0 0 0 -2.83,-0.26 a10.91,10.91 0 0 0 -0.2,3 c2.44,11.27 5,22.51 7.46,33.76 C87.05238243103027,324.98951705932615 90.34238243103027,339.84951705932616 93.80238243103027,355.3895170593262 zM515.7123824310303,254.53951705932616 l0.6200000000000003,-0.48000000000000015 a15.77,15.77 0 0 0 -0.19000000000000009,-2.07 q-7.59,-35.25 -15.22,-70.48 a4,4 0 0 0 -5.48,-2.87 q-12.39,4.5600000000000005 -24.77,9.16 c-3.85,1.42 -4.19,2.7600000000000002 -1.61,6 q5.17,6.51 10.23,13.11 q17.74,23 35.47,46 A15.13,15.13 0 0 1 515.7123824310303,254.53951705932616 zm-83.13,-136 l-0.36000000000000015,0.27 c0.25,0.6500000000000004 0.48000000000000015,1.31 0.78,1.94 c2.19,4.58 4.42,9.14 6.59,13.73 q11.34,24 22.64,48 c1.77,3.77 4.6,5 8.56,3.5700000000000003 c1.28,-0.45 2.54,-1 3.8200000000000003,-1.4300000000000002 l20.4,-7.54 c2.67,-1 2.89,-2.19 0.8200000000000003,-4 c-3.84,-3.34 -7.65,-6.71 -11.5,-10 Q464.10238243103026,145.52951705932617 443.8423824310303,128.14951705932617 Q438.23238243103026,123.30951705932617 432.5823824310303,118.49951705932617 zm-52.48,383.8 l0,-0.5800000000000003 c-0.78,-0.06000000000000003 -1.56,-0.14 -2.34,-0.19000000000000009 c-6.71,-0.41000000000000014 -13.43,-0.78 -20.14,-1.23 q-26.39,-1.77 -52.78,-3.59 c-2.62,-0.18000000000000008 -4.1,1.46 -3.83,4.05 q1.22,11.77 2.39,23.56 c0.35000000000000014,3.47 2,4.59 5.32,3.42 q17.06,-6 34.08,-12.08 Q361.4523824310303,508.9995170593262 380.10238243103026,502.29951705932615 zm-158.18,3.51 l0,0.41000000000000014 c2.48,0.7300000000000003 4.95,1.47 7.43,2.19 q34.22,9.89 68.44,19.75 c3.21,0.92 4.41,-0.13 4.07,-3.33 q-1.25,-11.64 -2.43,-23.29 c-0.23,-2.24 -3,-4.68 -5.32,-4.44 c-5.24,0.55 -10.47,1.2 -15.7,1.83 q-20,2.39 -40,4.8100000000000005 C232.88238243103027,504.3995170593262 227.40238243103028,505.1495170593262 221.9223824310303,505.8095170593262 zm168.45,-8 l0.25,0.44000000000000017 c0.4,-0.15000000000000008 0.81,-0.29000000000000015 1.2,-0.45 c18.51,-7.43 37,-14.83 55.52,-22.33 c3,-1.22 6.86,-1.52 7.8100000000000005,-5.7 c0.07,-0.28 0.6200000000000003,-0.43000000000000016 0.77,-0.7300000000000003 a4.3,4.3 0 0 0 0.7200000000000003,-2.06 q-1.56,-13 -3.31,-25.91 a11,11 0 0 0 -0.9,-2.39 a9.49,9.49 0 0 0 -2.47,1.22 Q430.0923824310303,459.1495170593262 410.2723824310303,478.4495170593262 zM456.24238243103025,432.1495170593262 l0.4,0.3900000000000002 c13.5,-7.84 27.07,-15.54 40.4,-23.65 c2,-1.23 2,-4.94 4.38,-6.58 c0.12000000000000002,-0.08000000000000004 0,-0.52 0,-0.79 c-0.3300000000000002,-10.36 -0.6300000000000003,-20.72 -1,-31.07 c-0.17,-4.76 -0.45,-9.52 -0.6700000000000006,-14.29 l-0.52,-0.14 zm-380,-167 l0.37000000000000016,0.27 c3.56,-5.79 7.08,-11.61 10.68,-17.37 q14.3,-22.86 28.63,-45.69 a4.67,4.67 0 0 0 -1.6400000000000001,-6.15 q-7.94,-4.49 -15.9,-8.93 c-3.8,-2.12 -5.55,-1.3 -6.42,2.84 Q84.13238243103028,227.63951705932618 76.25238243103027,265.1495170593262 zM152.04238243103026,126.25951705932617 l-0.6800000000000006,-0.6500000000000004 c-3.6500000000000004,3.7800000000000002 -7.23,7.63 -10.94,11.33 Q119.18238243103028,158.14951705932617 97.87238243103027,179.21951705932617 a3.7800000000000002,3.7800000000000002 0 0 0 0.8500000000000003,6.35 q8.06,4.5600000000000005 16.17,9 a4.73,4.73 0 0 0 6.48,-2.27 q8.63,-18.65 17.28,-37.28 Q145.34238243103027,140.64951705932617 152.04238243103026,126.25951705932617 zm272.38,-14.28 a8.54,8.54 0 0 0 -0.78,-0.91 c-13.78,-11 -27.51,-22 -41.4,-32.85 c-3.14,-2.45 -5.54,-6.27 -10.74,-5.57 c-1.7200000000000002,0.24000000000000007 -3.55,-0.09000000000000007 -5.25,0.8200000000000003 c-1.44,0.7600000000000003 -3,1.4 -4.41,2.12 c-6,2.89 -11.93,5.78 -17.85,8.73 c-0.6200000000000003,0.31000000000000016 -1,1.08 -1.51,1.6300000000000003 A16.13,16.13 0 0 0 344.1523824310303,87.14951705932617 a8.77,8.77 0 0 0 1.55,0.5 q26,8.06 51.91,16.12 C406.42238243103026,106.46951705932617 415.24238243103025,109.14951705932617 424.42238243103026,111.97951705932617 zM248.06238243103027,87.41951705932617 l0.26,0.5900000000000003 l85.41,-2.51 c-10.74,-6.12 -21.46,-11.65 -32.3,-16.92 c-3.46,-1.6700000000000006 -6.65,-5 -11.15,-3 c-0.21000000000000008,0.09000000000000007 -0.54,-0.12000000000000002 -0.8,-0.09000000000000007 c-1.34,0.15000000000000008 -2.87,0 -4,0.56 c-6.52,3.54 -12.95,7.25 -19.4,10.94 Q257.0823824310303,82.14951705932617 248.06238243103027,87.41951705932617 zM143.83238243103028,446.5795170593262 a21.11,21.11 0 0 0 0,3 q2,12 4,23.89 c0.24000000000000007,1.4100000000000001 0.41000000000000014,2.7600000000000002 2.2800000000000002,3.23 c0.7400000000000003,0.19000000000000009 1.2,1.45 1.83,2.19 s1.17,1.7600000000000002 2,2.07 c12.86,4.92 25.77,9.74 38.66,14.61 c6.14,2.3200000000000003 12.27,4.7 18.4,7.05 l0.19000000000000009,-0.4 zM94.66238243103027,366.48951705932615 l-0.49000000000000016,0.12000000000000002 a20.8,20.8 0 0 0 0,2.09 c1.46,13.82 2.89,27.64 4.46,41.44 c0.12000000000000002,1.05 1.21,2 1.81,3 s1.17,2.11 1.7600000000000002,3.16 c0.46,0.8400000000000003 0.7300000000000003,2 1.44,2.46 c6.7,4.35 13.47,8.6 20.23,12.85 c4.87,3.07 9.77,6.11 14.65,9.16 l0.38000000000000017,-0.37000000000000016 zM241.56238243103027,88.83951705932617 c-1.48,-0.8800000000000003 -2.16,-1.3 -2.85,-1.6900000000000006 l-15.24,-8.44 c-2,-1.09 -3.8,-2.94 -6.35,-1.22 c-0.30000000000000016,0.2 -0.8900000000000003,-0.1 -1.32,0 c-1.06,0.14 -2.36,0 -3.11,0.5800000000000003 q-24.79,18.95 -49.5,38 c-0.45,0.35000000000000014 -0.9500000000000003,0.6200000000000003 -1.4300000000000002,0.93 l0.48000000000000015,0.6500000000000004 zM74.97238243103027,278.23951705932615 l-0.52,0.09000000000000007 q-2.22,29.24 -4.42,58.47 c-0.21000000000000008,2.8 -1.6600000000000001,5.91 1.52,8.12 a1,1 0 0 1 0.21000000000000008,0.77 c-0.22000000000000008,1.9 1.08,2.67 2.44,3.49 c4.83,2.91 9.59,5.94 14.46,8.78 c0.8300000000000003,0.49000000000000016 2.06,0.29000000000000015 3.11,0.41000000000000014 a10.1,10.1 0 0 0 0.25,-2.91 q-7,-32 -14.15,-64.06 Q76.42238243103027,284.8195170593262 74.97238243103027,278.23951705932615 zM458.5223824310303,468.5695170593262 l0.8,0.21000000000000008 l39.71,-58.5 a5.6,5.6 0 0 0 -1.25,0.26 C484.5923824310303,418.1495170593262 471.3423824310303,425.6995170593262 458.3423824310303,433.6395170593262 a7.62,7.62 0 0 0 -3.2800000000000002,7 c0.52,5.3100000000000005 1.22,10.61 1.8900000000000001,15.92 C457.42238243103026,460.53951705932616 457.98238243103026,464.54951705932615 458.5223824310303,468.5695170593262 zm71.89,-130.21 l-0.6300000000000003,-0.5800000000000003 c-3,1.53 -6.1,2.79 -8.84,4.6400000000000015 c-6.07,4.12 -14.63,4.6 -18.26,12.3 a7.33,7.33 0 0 0 -1,3.05 c0.3400000000000003,13.92 0.78,27.83 1.21,41.75 c0,0.7600000000000003 0.2,1.52 0.41000000000000014,3.05 zm-234,-274.85 l-0.18000000000000008,0.4 c0.91,0.52 1.79,1.08 2.72,1.56 c9.73,5 19.36,10.25 29.28,14.85 c3.16,1.47 6.35,4.93 10.61,2.33 c0.27,-0.17 0.8500000000000003,0.27 1.29,0.27 c1.09,0 2.3200000000000003,0.23 3.23,-0.2 c7.3,-3.43 14.54,-7 21.79,-10.53 c1.13,-0.55 2.22,-1.18 3.33,-1.78 l-0.22000000000000008,-0.56 zM220.34238243103027,74.21951705932617 l-0.05000000000000003,0.6600000000000005 c0.7300000000000003,0.47000000000000014 1.4300000000000002,1 2.19,1.3900000000000001 c5.08,2.81 10.15,5.6400000000000015 15.26,8.39 c1.81,1 3.52,2.83 5.8900000000000015,1 c0.3300000000000002,-0.26 1.06,0 1.59,0 A8.49,8.49 0 0 0 248.34238243103027,85.14951705932617 C259.13238243103024,79.14951705932617 269.8323824310303,72.96951705932617 280.54238243103026,66.82951705932618 q2.13,-1.22 4.24,-2.45 l-0.22000000000000008,-0.45 zM103.86238243103027,421.0795170593262 l-0.42000000000000015,0.52 c14.19,18 28.39,36.07 43,54.59 a16.42,16.42 0 0 0 0,-1.7200000000000002 c-1.28,-7.68 -2.54,-15.37 -3.88,-23.05 c-0.3300000000000002,-1.85 -0.24000000000000007,-4 -2.84,-4.66 c-0.55,-0.14 -0.7300000000000003,-1.53 -1.17,-2.3 c-0.53,-0.9400000000000003 -0.93,-2.14 -1.7600000000000002,-2.68 c-5.85,-3.83 -11.79,-7.52 -17.72,-11.24 Q111.47238243103027,425.78951705932616 103.86238243103027,421.0795170593262 zm210,106.64 l0.12000000000000002,0.49000000000000016 c0.54,-0.06000000000000003 1.07,-0.11000000000000004 1.6,-0.19000000000000009 l32.61,-4.8 q14.82,-2.18 29.65,-4.37 c1.9100000000000001,-0.29000000000000015 5.53,-3.6 5.71,-5.23 c0.21000000000000008,-2 0.42000000000000015,-4 0.55,-6 c0.24000000000000007,-3.8600000000000003 -1,-4.71 -4.7,-3.37 l-43.3,15.5 zm178.3,-360.1 l0.3900000000000002,-0.3200000000000002 l-0.6000000000000003,-0.8200000000000003 l-36.53,-46.2 c-1.1600000000000001,-1.47 -2.15,-3.13 -4.53,-2.79 c-0.6600000000000005,0.1 -1.4300000000000002,-0.6100000000000003 -2.17,-0.9400000000000003 a13.16,13.16 0 0 0 -3.2,-1.33 a36.37,36.37 0 0 0 -4.9,0 h-8.24 l-0.19000000000000009,0.78 zM504.3423824310303,186.20951705932617 l-0.48000000000000015,0.07 c0.06000000000000003,0.54 0.07,1.08 0.18000000000000008,1.6 q7,32.82 14.06,65.65 c0.46,2.16 1.6300000000000003,2.55 3.39,1.1 q2.92,-2.43 5.83,-4.91 c2.13,-1.8 3.13,-6.34 2,-8.88 q-8.45,-18.57 -16.91,-37.13 Q508.3423824310303,194.94951705932618 504.3423824310303,186.20951705932617 zM96.34238243103027,409.54951705932615 l0.48000000000000015,-0.12000000000000002 c0,-0.36000000000000015 0,-0.7200000000000003 0,-1.08 c-1.33,-12.66 -2.8600000000000003,-25.3 -3.88,-38 c-0.31000000000000016,-3.88 -1.6800000000000006,-7.79 -4,-9.72 c-5.36,-4.48 -11.78,-7.69 -17.76,-11.41 l-0.49000000000000016,0.43000000000000016 Q83.48238243103027,379.60951705932615 96.34238243103027,409.54951705932615 zm434.92,-86 l0.36000000000000015,0 c0,-0.78 0.11000000000000004,-1.56 0.11000000000000004,-2.35 l0,-50.77 c0,-6.19 0,-12.38 0,-18.57 c0,-1.17 -0.44000000000000017,-3.2 -1.6500000000000006,-2 c-3,2.91 -8.2,3.91 -8.38,9.35 c0,0.6600000000000005 -0.6700000000000006,1.27 -0.9,2 a6.35,6.35 0 0 0 -0.6500000000000004,2.8 c1.61,9.12 3.34,18.22 5,27.33 zm-85,155 l-0.06000000000000003,-0.6200000000000003 c-0.8200000000000003,0.27 -1.6700000000000006,0.5 -2.47,0.8300000000000003 Q418.3423824310303,488.98951705932615 392.99238243103025,499.22951705932616 c-1.85,0.7500000000000003 -4.1,0.9500000000000003 -4.17,3.8 c0,0.5900000000000003 -1.07,1.1400000000000001 -1.59,1.75 s-1.19,1.18 -1.3,1.85 a61.72,61.72 0 0 0 -0.6800000000000006,6.5 a11.65,11.65 0 0 0 0.38000000000000017,2.52 a10.05,10.05 0 0 0 2.7,-0.7600000000000003 q15.28,-9.5 30.48,-19.1 zm-226.3,28.84 L219.34238243103027,508.1495170593262 c3.5700000000000003,3.6100000000000003 4.54,9.39 10.12,11.35 c0.53,0.18000000000000008 0.8500000000000003,0.92 1.35,1.27 a6,6 0 0 0 2.4,1.36 q22.07,2.52 44.17,4.8900000000000015 c4.22,0.46 8.46,0.8700000000000003 12.69,1.3 l0.09000000000000007,-0.6100000000000003 zM385.12238243103025,77.45951705932617 l-0.44000000000000017,0.5900000000000003 c0.30000000000000016,0.21000000000000008 0.6000000000000003,0.41000000000000014 0.8900000000000003,0.6400000000000003 Q405.0023824310303,94.14951705932617 424.41238243103027,109.60951705932617 a4.59,4.59 0 0 0 4.14,1.25 c1,-0.19000000000000009 2.24,0.7500000000000003 3.3,1.31 c0.52,0.27 0.8600000000000003,1.21 1.3,1.22 c4.67,0.09000000000000007 9.34,0.06000000000000003 14,0.06000000000000003 l0.12000000000000002,-0.6800000000000006 zm-160.48,442 l0.3400000000000003,-0.36000000000000015 c-1.85,-2.7 -3.59,-5.48 -5.61,-8 c-0.7100000000000003,-0.91 -2.12,-1.23 -3.14,-1.92 s-2.62,-1.4100000000000001 -2.8600000000000003,-2.38 c-0.4,-1.6800000000000006 -1.37,-2.12 -2.68,-2.6100000000000003 q-13.53,-5.07 -27,-10.19 l-20,-7.52 l-0.2,0.47000000000000014 zM151.74238243103028,121.92951705932617 c-2.3200000000000003,0.30000000000000016 -5.55,-1.3900000000000001 -7.79,1.94 c-0.31000000000000016,0.45 -1.34,0.3900000000000002 -2,0.6700000000000006 c-1,0.44000000000000017 -2.21,0.7400000000000003 -2.83,1.5 c-7.71,9.55 -15.33,19.17 -23,28.78 q-5.36,6.77 -10.69,13.56 l0.5800000000000003,0.53 zM73.43238243103028,267.08951705932617 l0.7500000000000003,-0.15000000000000008 l13.47,-64.06 A4.07,4.07 0 0 0 86.34238243103027,205.02951705932617 Q78.64238243103027,228.41951705932618 70.94238243103027,251.78951705932616 c-0.49000000000000016,1.51 -1,2.74 0.43000000000000016,4.13 a2.88,2.88 0 0 1 0.30000000000000016,2.77 C69.34238243103027,262.3295170593262 72.63238243103028,264.35951705932615 73.43238243103028,267.08951705932617 zM195.76238243103026,88.88951705932617 l-0.3900000000000002,-0.5700000000000003 l-49.54,31.29 c5.15,2.9 8.27,-3.13 12.870000000000001,-2.26 c0.36000000000000015,0.06000000000000003 0.8600000000000003,-0.6200000000000003 1.29,-1 q10.17,-7.78 20.33,-15.56 C185.48238243103026,96.86951705932617 190.61238243103028,92.86951705932617 195.76238243103026,88.88951705932617 zM69.34238243103027,263.98951705932615 v56.27 c0.56,-4.42 0.9500000000000003,-8.84 1.29,-13.28 c0.7600000000000003,-10.06 1.46,-20.13 2.2800000000000002,-30.18 c0.12000000000000002,-1.52 0.3300000000000002,-2.64 -1.24,-3.73 a3.54,3.54 0 0 1 -0.8,-3.38 C72.45238243103027,267.1995170593262 70.55238243103028,265.71951705932617 69.34238243103027,263.98951705932615 zM478.10238243103026,444.1495170593262 l0.43000000000000016,0.41000000000000014 q7.05,-9 14.09,-18 c3.41,-4.36 6.85,-8.71 10.13,-13.17 c0.48000000000000015,-0.6500000000000004 0.2,-1.85 0.27,-2.81 a20,20 0 0 0 -2.7600000000000002,1 c-0.43000000000000016,0.22000000000000008 -0.6400000000000003,0.8600000000000003 -0.9400000000000003,1.31 q-4.2,6.19 -8.39,12.41 zM520.3423824310303,368.1495170593262 l-0.36000000000000015,-0.14 a2.79,2.79 0 0 0 -0.43000000000000016,0.56 c-4.88,11.5 -9.79,23 -14.56,34.54 c-0.3400000000000003,0.8 0.36000000000000015,2 0.5700000000000003,3.06 c0.78,-0.6500000000000004 2,-1.15 2.2800000000000002,-2 c2.73,-7.48 5.33,-15 7.94,-22.53 C517.3423824310303,377.1495170593262 518.7923824310303,372.60951705932615 520.3423824310303,368.1495170593262 z" id="svg_1" fill="#ffffff" fill-opacity="1" stroke="#ffffff" stroke-opacity="1"/></g><path fill="#ffffff" fill-opacity="1" stroke="#ffffff" stroke-opacity="1" stroke-width="1" stroke-dasharray="none" stroke-linejoin="miter" stroke-linecap="butt" stroke-dashoffset="" fill-rule="nonzero" opacity="1" marker-start="" marker-mid="" marker-end="" d="M513.0130540172809,286.907800925851 L508.4858687474398,311.14155737029546 " id="svg_2" class=""/><path fill="#ffffff" fill-opacity="1" stroke="#ffffff" stroke-opacity="1" stroke-width="1" stroke-dasharray="none" stroke-linejoin="miter" stroke-linecap="butt" stroke-dashoffset="" fill-rule="nonzero" opacity="1" marker-start="" marker-mid="" marker-end="" d="M506.3966754197067,319.8219374813953 L512.6104591234105,286.17873714277096 " id="svg_3" class=""/></g></svg>
